PathFileType	3	(X/Y/Z)	D:\minhoCalibration\240510\subject5_KPNP\preferred\preferred20.trc
DataRate	CameraRate	NumFrames	NumMarkers	Units	OrigDataRate	OrigDataStartFrame	OrigNumFrames
200.0	200.0	24	10	mm	200.0	217	131	
Frame#	Time	Left_Ankle_Outer1			Left_Ankle_Inner1			Left_Knee_Outer1			Left_Knee_Inner1			Left_Wrist1			Right_Wrist1			Right_Knee_Inner1			Right_Knee_Outer1			Right_Ankle_Inner1			Right_Ankle_Outer1			
		X1	Y1	Z1	X2	Y2	Z2	X3	Y3	Z3	X4	Y4	Z4	X5	Y5	Z5	X6	Y6	Z6	X7	Y7	Z7	X8	Y8	Z8	X9	Y9	Z9	X10	Y10	Z10	
217	1.075	-146.47675	88.626381	-733.08356	-191.42937	102.30451	-709.02936	10.499506	524.20465	-602.47064	-66.874153	512.46808	-553.12311	53.554291	972.53357	-734.94226	-192.39536	1169.9824	-619.84125	-280.69748	949.26746	-182.75861	-334.66064	1013.1168	-212.94789	-434.91293	811.6322	202.22148	-520.75049	840.41345	168.05365
218	1.08	-145.92216	88.176407	-732.99207	-190.4389	102.19067	-709.80286	11.553885	524.25739	-603.82776	-66.147926	512.38379	-554.41675	55.185497	973.81738	-733.49011	-194.51823	1167.777	-621.80634	-283.40033	941.27643	-186.32445	-337.29453	1005.7737	-216.00681	-440.00165	796.79529	195.61156	-525.74744	825.98749	161.17648
219	1.085	-145.20798	87.526146	-733.67218	-189.63875	101.91881	-710.47119	12.31279	524.16565	-605.13965	-65.271332	512.27063	-555.77057	56.829636	974.86774	-732.06964	-196.21434	1165.5789	-623.86493	-286.02768	933.32513	-190.22656	-340.00311	998.22522	-219.14348	-445.43167	781.58252	188.36403	-530.64545	810.76801	153.43828
220	1.09	-144.16084	87.664558	-734.55219	-188.793	101.66117	-711.62469	13.355	524.06573	-606.62769	-64.489586	512.25116	-557.13452	58.25843	975.86133	-730.6402	-197.71825	1164.5347	-625.21069	-288.24976	925.45825	-193.98143	-341.97861	990.60376	-222.33212	-450.81485	765.96869	180.6936	-536.17993	795.05444	145.2339
221	1.095	-143.79808	87.461365	-734.88202	-188.73703	101.69772	-711.3537	14.010384	524.12372	-607.82239	-64.107796	512.10974	-558.15619	59.721031	976.66907	-729.32617	-199.0173	1162.9191	-627.18567	-290.08511	917.53564	-197.50363	-344.04126	982.98859	-225.51042	-456.22443	749.94263	172.35934	-541.63507	778.81952	136.28842
222	1.1	-143.61743	87.415337	-735.03021	-188.65681	101.54478	-711.47504	14.177249	523.78265	-608.67456	-63.623562	512.11493	-559.49335	61.163006	977.45062	-728.12512	-200.2942	1161.7544	-629.09521	-292.03052	909.53357	-201.5191	-345.90942	975.3158	-228.58873	-461.73416	733.74854	163.54466	-547.03546	762.21552	126.65345
223	1.105	-143.82527	87.271187	-734.95306	-188.70061	101.44141	-711.45966	14.513409	523.74371	-609.65118	-63.447803	512.20416	-560.59839	62.585972	978.28479	-727.11603	-201.5114	1160.3267	-630.45789	-293.80341	901.40784	-205.32454	-347.52161	967.65411	-231.69701	-467.27817	717.16119	154.24786	-552.42505	745.42426	116.49896
224	1.11	-143.63177	87.532883	-735.31769	-189.15916	101.26395	-711.03766	14.953157	524.04456	-610.76801	-63.669495	512.29187	-561.65308	63.933544	978.95435	-726.13788	-202.34903	1158.7583	-632.88672	-295.45898	893.14301	-208.90453	-348.98703	959.78375	-234.79166	-472.94644	700.45294	144.29424	-557.67896	727.95514	105.67108
225	1.115	-144.83427	87.00843	-734.51971	-189.52925	101.51006	-710.92676	14.607577	523.76758	-611.39807	-64.037956	512.50562	-562.70099	65.537399	979.65833	-725.39496	-203.1861	1157.327	-632.6687	-297.19318	884.6416	-212.87074	-350.66174	951.78131	-238.28987	-478.52216	683.58984	134.0383	-562.66595	710.82672	94.555435
226	1.12	-146.17282	86.403931	-733.5976	-190.10558	101.15379	-710.49786	14.44755	523.78601	-612.14771	-64.535591	512.73828	-563.95087	67.167862	980.45929	-724.86536	-203.91856	1155.6271	-633.76746	-299.02899	876.04602	-217.25508	-352.24658	943.56287	-241.6866	-484.05283	666.42035	123.10442	-567.7749	693.70526	82.784088
227	1.125	-146.01505	86.918465	-734.25952	-190.72464	101.02382	-710.22797	14.227587	523.9881	-612.96588	-65.542305	513.02826	-565.72247	68.913971	981.32983	-724.46893	-204.54585	1153.7202	-634.77832	-300.68372	867.14276	-221.23773	-353.88031	935.11481	-245.19345	-489.28976	649.14673	111.66806	-572.73724	676.35754	70.48748
228	1.13	-146.58365	86.805305	-734.04108	-191.50002	100.73037	-710.04639	13.657815	523.85315	-613.68469	-65.903145	513.88	-566.1087	69.826645	982.29034	-724.62659	-205.20064	1151.8732	-634.84186	-302.55643	858.20557	-226.06837	-355.52863	926.45392	-248.90129	-494.39029	631.70746	99.577095	-577.40759	659.09882	57.784992
229	1.135	-147.50352	86.555504	-733.51648	-191.92169	100.54787	-709.83258	13.359199	523.96533	-614.63806	-66.684715	513.97913	-567.56775	72.608353	984.05914	-723.74969	-205.40825	1150.2617	-636.3595	-304.25403	848.90759	-230.53163	-357.13477	917.61682	-252.80299	-499.16382	614.20819	87.062737	-581.82477	641.76459	44.443577
230	1.14	-147.65634	86.265343	-733.76843	-192.38748	100.27209	-709.6687	12.619312	523.76099	-615.51447	-67.487	514.1059	-569.16187	73.279068	984.74261	-724.37262	-205.78734	1148.5035	-637.08557	-306.00278	839.46387	-235.51503	-358.77829	908.57825	-256.89368	-503.65997	597.0188	74.428688	-586.00232	624.39966	30.727512
231	1.145	-149.03004	85.176926	-732.77582	-192.35681	99.732979	-710.52246	12.358129	523.86304	-616.59027	-68.298508	514.36273	-570.71021	74.897545	986.32501	-723.90247	-206.35808	1146.9977	-637.53436	-307.69128	829.97235	-240.99126	-360.35867	899.35547	-261.2962	-507.87408	579.12646	60.686657	-589.96539	607.22925	16.68318
232	1.15	-148.28741	85.408188	-733.95337	-192.72087	99.365967	-709.92334	11.609422	523.50952	-617.5318	-69.228325	514.4505	-572.3634	76.21167	987.17474	-723.56226	-206.67212	1145.2987	-638.01941	-309.27222	820.29303	-246.8027	-361.83615	889.96948	-266.27573	-511.85965	561.42139	46.428307	-593.47351	590.11774	2.0377121
233	1.155	-148.33238	84.95649	-734.13898	-192.83653	99.11554	-710.29346	11.386639	523.57886	-618.69312	-69.989098	514.62775	-573.87177	77.139977	987.59589	-723.63678	-206.77313	1143.7507	-639.93335	-310.75314	810.59399	-252.94569	-363.07526	880.51099	-271.54922	-515.50525	543.72046	31.563248	-596.77179	573.21667	-12.954032
234	1.16	-148.6073	84.056328	-733.9563	-192.81781	98.241081	-711.36133	10.983188	523.3316	-619.71381	-70.814186	514.4657	-575.57227	79.09549	988.42865	-722.49542	-207.3172	1142.2465	-639.43091	-312.05817	800.82666	-259.41089	-364.65005	870.86615	-277.02808	-518.7663	526.10907	16.005949	-599.85645	556.5354	-28.306973
235	1.165	-148.04698	84.105034	-734.62616	-192.40401	98.289108	-712.14972	10.817754	523.20184	-620.8526	-71.467613	514.35883	-577.04865	79.661774	988.58807	-722.56183	-207.2177	1140.111	-641.45923	-313.23276	790.99225	-266.1962	-366.32559	861.05798	-282.71149	-521.24658	508.56482	-0.19832548	-602.62762	540.04761	-43.903023
236	1.17	-147.83037	83.709999	-735.03845	-192.87285	97.860229	-711.67139	10.699423	523.01331	-621.84601	-71.965782	514.21405	-578.82581	81.633255	989.2345	-721.2121	-207.96237	1138.9999	-640.98187	-314.36166	781.13861	-273.32663	-367.60828	851.38092	-288.70776	-524.79785	490.797	-16.468939	-605.05585	523.71594	-59.935608
237	1.175	-147.0692	83.59639	-735.91016	-192.3333	97.683853	-712.22852	10.534849	522.81775	-622.75909	-72.549484	514.15204	-580.12769	82.215477	989.2074	-721.07007	-208.44003	1137.0557	-641.89008	-315.36133	771.21552	-280.56534	-368.81241	841.34186	-295.1767	-527.3894	473.27451	-33.650204	-607.1391	507.4631	-76.40155
238	1.18	-147.26982	83.079002	-735.69305	-191.95744	97.537254	-712.64252	10.977634	523.36548	-623.66919	-72.920799	514.07098	-581.65002	84.717812	987.64868	-719.83234	-208.98424	1135.6599	-642.77435	-316.18823	761.42065	-288.13989	-370.24667	831.55164	-301.33676	-529.60449	455.79694	-51.20903	-608.86719	491.58353	-93.057861
239	1.185	-146.81964	82.861862	-735.96564	-191.92535	97.135506	-713.09351	10.484674	522.68707	-624.34875	-73.305069	514.09705	-582.98511	85.187157	988.68976	-719.61804	-209.50809	1133.8881	-643.63391	-316.82526	751.66235	-295.79578	-371.43768	821.80914	-308.02908	-530.58325	439.06906	-69.841522	-610.36237	475.83755	-110.34632
240	1.19	-145.81001	82.995316	-736.95465	-191.02151	97.081818	-714.20203	10.581066	522.68097	-625.00781	-73.724487	514.36096	-584.09631	85.907516	989.11987	-718.54712	-210.13376	1132.4982	-644.74103	-316.98923	742.01678	-303.10974	-372.59262	812.0824	-314.9292	-532.23181	421.95886	-87.656525	-611.27606	460.36282	-127.94068
